<?xml version="1.0" encoding="UTF-8"?>
<svg id="Layer_1" data-name="Layer 1" xmlns="http://www.w3.org/2000/svg" xmlns:xlink="http://www.w3.org/1999/xlink" viewBox="0 0 600 600">
  <defs>
    <style>
      .cls-1 {
        mask: url(#mask);
      }

      .cls-2 {
        fill: #fff;
      }
    </style>
    <mask id="mask" x="230.22" y="237.6" width="93.94" height="94.75" maskUnits="userSpaceOnUse">
      <g id="mask0_5_30" data-name="mask0 5 30">
        <path class="cls-2" d="M324.16,237.6h-93.94v93.94h93.94v-93.94Z"/>
      </g>
    </mask>
  </defs>
  <g class="cls-1">
    <g>
      <path class="cls-2" d="M304.59,331.72c2.84-6.38,6.94-13.61,4.87-20.51-2.86-6.4-20.71-46.24-25.36-54.83-1.28-2.38-3.64-5.56-6.58-5.87-4.43-.46-6.63,5.77-8.53,9.24-5.71,10.45-20.25,39.72-24.65,48.94-2.01,4.2-1.65,10.28,4.24,10.83,3.87.36,20.24.08,26.26.04,4.97-.02,7.73-14.57,7.73-14.57h11.04s18.63,26.23-3.51,26.78c-8.82.23-37.25,1.19-45.65-.1-8.22-1.28-14.26-11.81-13.17-19.44.84-5.98,27.61-57.55,31.75-65.07,5.73-10.47,21.09-12.38,26.97-3.28,10.87,16.81,25,49.39,33.72,68.6,2.09,11.48-7.76,20.23-19.11,19.25l-.02-.02Z"/>
      <path class="cls-2" d="M283.94,286h-4.14c-3.05,0-9.66,21.4-9.66,21.4l-11.73-.69,17.94-35.89,7.59,15.18Z"/>
    </g>
  </g>
</svg>